<svg width="257" height="120" viewBox="0 0 257 120" fill="none" xmlns="http://www.w3.org/2000/svg">
<rect width="257" height="120" fill="white"/>
<g clip-path="url(#clip0_54_1468)">
<path d="M87.93 71.585C93.3333 70.9831 95.3237 67.2015 96.6872 65.0578V48.3068H86V69.1012V71.6931C86.6143 71.6945 87.2573 71.6599 87.93 71.585Z" fill="#808080"/>
<path d="M75.3127 48.3068H85.9999M75.3127 48.3068C75.3127 48.3068 75.3127 50.5247 75.3127 51.9458C75.3127 57.0664 75.3127 65.0578 75.3127 65.0578C76.5587 68.0231 79.8273 71.6785 85.9999 71.6931M75.3127 48.3068L96.6872 65.0578M85.9999 48.3068H96.6872V65.0578M85.9999 48.3068V69.1012M85.9999 71.6931C86.6142 71.6945 87.2573 71.6599 87.93 71.585C93.3333 70.9831 95.3236 67.2015 96.6872 65.0578M85.9999 71.6931V69.1012M85.9999 69.1012C82.9491 68.3084 81.3607 67.6095 79.1536 65.0578V51.3168M85.9999 69.1012C89.4005 68.0328 91.2692 67.4071 92.8463 65.0578V58.1873V54.7521V53.0345V51.3168" stroke="black"/>
</g>
<g clip-path="url(#clip1_54_1468)">
<path d="M113.989 67.8619C112.536 67.8619 111.375 67.6206 110.503 67.1379C109.632 66.6552 109.003 65.9794 108.618 65.1106C108.233 64.2417 108.04 63.2281 108.04 62.0696L108.078 54.2681H111.583L111.545 61.6714C111.539 62.6126 111.624 63.3397 111.801 63.8526C111.984 64.3594 112.252 64.7123 112.606 64.9115C112.966 65.1045 113.408 65.2011 113.932 65.2011C114.462 65.2011 114.904 65.0985 115.258 64.8934C115.612 64.6882 115.877 64.3292 116.054 63.8163C116.231 63.3035 116.319 62.5885 116.319 61.6714V54.2681H119.805V62.1239C119.805 63.9219 119.34 65.3278 118.412 66.3414C117.49 67.3551 116.016 67.8619 113.989 67.8619ZM122.853 67.7171V54.2681H126.15L130.961 61.6533L132.761 65.2735H132.117L131.549 60.1871V54.2681H134.75V67.7171H131.208L126.642 60.5129L124.577 56.3859H125.354L126.055 61.9067V67.7171H122.853ZM138.256 67.7171V54.2681H141.818V67.7171H138.256Z" fill="#359E9A"/>
<path d="M149.304 67.862C148.634 67.862 147.994 67.8137 147.381 67.7172C146.775 67.6267 146.248 67.5181 145.799 67.3914C145.351 67.2586 145.035 67.1379 144.852 67.0293L145.288 64.4047C145.521 64.5314 145.837 64.6611 146.235 64.7939C146.633 64.9266 147.072 65.0412 147.552 65.1378C148.038 65.2283 148.527 65.2735 149.02 65.2735C149.683 65.2735 150.163 65.183 150.459 65.002C150.763 64.821 150.914 64.5314 150.914 64.1332C150.914 63.8436 150.823 63.5992 150.639 63.4001C150.456 63.1949 150.153 62.9868 149.73 62.7756C149.313 62.5644 148.755 62.2989 148.054 61.9792C147.46 61.7076 146.914 61.3879 146.415 61.0198C145.916 60.6457 145.515 60.1992 145.212 59.6803C144.909 59.1554 144.757 58.5339 144.757 57.8159C144.757 57.2005 144.877 56.6635 145.117 56.2049C145.364 55.7403 145.708 55.3542 146.15 55.0465C146.598 54.7388 147.128 54.5095 147.741 54.3586C148.354 54.2018 149.032 54.1233 149.777 54.1233C150.838 54.1233 151.703 54.2168 152.373 54.4039C153.042 54.5909 153.503 54.7569 153.756 54.9017L153.206 57.4177C152.922 57.2065 152.483 57.0134 151.89 56.8385C151.302 56.6575 150.699 56.567 150.081 56.567C149.639 56.567 149.275 56.6152 148.991 56.7118C148.707 56.8023 148.496 56.932 148.357 57.1009C148.218 57.2699 148.148 57.466 148.148 57.6892C148.148 57.9607 148.23 58.2021 148.395 58.4133C148.565 58.6184 148.827 58.8235 149.181 59.0287C149.541 59.2278 150.005 59.4511 150.573 59.6984C151.179 59.9579 151.719 60.2234 152.193 60.4949C152.673 60.7664 153.08 61.062 153.415 61.3818C153.749 61.7016 154.002 62.0667 154.172 62.4769C154.349 62.8812 154.438 63.3488 154.438 63.8798C154.438 64.6822 154.239 65.3821 153.841 65.9795C153.45 66.5768 152.872 67.0414 152.108 67.3733C151.343 67.6991 150.409 67.862 149.304 67.862ZM156.23 61.0198C156.23 59.8794 156.414 58.8809 156.78 58.0241C157.146 57.1613 157.658 56.4403 158.314 55.861C158.971 55.2818 159.735 54.8474 160.606 54.5577C161.478 54.2681 162.419 54.1233 163.429 54.1233C164.08 54.1233 164.623 54.1595 165.058 54.2319C165.5 54.2983 165.879 54.3737 166.195 54.4582C166.517 54.5427 166.82 54.612 167.104 54.6664L166.65 57.5625C166.517 57.478 166.328 57.3755 166.081 57.2548C165.841 57.1281 165.526 57.0195 165.134 56.929C164.749 56.8324 164.275 56.7842 163.713 56.7842C162.993 56.7842 162.343 56.941 161.762 57.2548C161.181 57.5625 160.72 58.0181 160.379 58.6214C160.038 59.2188 159.868 59.9518 159.868 60.8207C159.868 61.7076 160.016 62.483 160.313 63.1467C160.616 63.8104 161.064 64.3293 161.658 64.7034C162.252 65.0714 162.987 65.2554 163.865 65.2554C164.263 65.2554 164.667 65.2102 165.077 65.1197C165.488 65.0231 165.857 64.9085 166.186 64.7758C166.514 64.643 166.757 64.5133 166.915 64.3866V67.156C166.675 67.2526 166.391 67.3552 166.062 67.4638C165.74 67.5724 165.365 67.6659 164.935 67.7443C164.506 67.8228 164.016 67.862 163.467 67.862C161.914 67.862 160.597 67.5814 159.517 67.0203C158.444 66.4592 157.626 65.6657 157.064 64.64C156.508 63.6143 156.23 62.4075 156.23 61.0198ZM175.223 67.862C173.834 67.8861 172.646 67.6176 171.661 67.0565C170.683 66.4893 169.937 65.6838 169.426 64.64C168.921 63.5901 168.681 62.3532 168.706 60.9293C168.738 59.3364 169.044 58.0482 169.625 57.0647C170.212 56.0752 171.011 55.3482 172.021 54.8836C173.032 54.4129 174.187 54.1595 175.488 54.1233C176.82 54.0871 177.963 54.3466 178.917 54.9017C179.87 55.4507 180.597 56.2442 181.095 57.2819C181.601 58.3197 181.841 59.5476 181.815 60.9655C181.784 62.5584 181.487 63.8587 180.925 64.8663C180.363 65.8739 179.593 66.6191 178.614 67.1017C177.635 67.5844 176.505 67.8378 175.223 67.862ZM175.28 65.4365C176.189 65.4365 176.906 65.0865 177.43 64.3866C177.954 63.6807 178.216 62.5101 178.216 60.875C178.216 60.0303 178.115 59.2881 177.913 58.6486C177.711 58.009 177.404 57.5112 176.994 57.1552C176.584 56.7993 176.063 56.6213 175.431 56.6213C174.857 56.6213 174.332 56.757 173.859 57.0285C173.385 57.3 173.006 57.7556 172.722 58.3952C172.444 59.0347 172.305 59.9096 172.305 61.0198C172.305 61.8766 172.416 62.6368 172.637 63.3005C172.858 63.9642 173.186 64.4861 173.622 64.8663C174.064 65.2464 174.617 65.4365 175.28 65.4365Z" fill="#45464F"/>
</g>
<defs>
<clipPath id="clip0_54_1468">
<rect width="22" height="24" fill="white" transform="translate(75 48)"/>
</clipPath>
<clipPath id="clip1_54_1468">
<rect width="74" height="14" fill="white" transform="translate(108 54)"/>
</clipPath>
</defs>
</svg>
